<svg xmlns="http://www.w3.org/2000/svg" width="18" height="20" viewBox="0 0 18 20" fill="none">
  <path d="M7.98761 5.25C7.98761 5.72541 8.15196 6.12442 8.48077 6.44629C8.80959 6.7681 9.21244 6.92871 9.68781 6.92871C9.87655 6.92868 10.0557 6.89986 10.2249 6.84082L10.3909 6.77148C10.5536 6.69277 10.7023 6.58469 10.8372 6.44727L10.9681 6.2998L11.3362 5.84863C12.3579 6.43048 13.1656 7.24055 13.7601 8.27734C14.3561 9.31701 14.6546 10.447 14.6546 11.667C14.6545 13.5247 14.0092 15.0975 12.72 16.3867C11.4308 17.6759 9.85803 18.3212 8.00031 18.3213C6.25854 18.3213 4.7667 17.7543 3.52472 16.6211L3.2796 16.3867C1.99051 15.0976 1.34608 13.5246 1.34601 11.667C1.34601 9.99027 1.87261 8.39208 2.92706 6.87305L3.14581 6.57031C4.34239 4.96565 5.95584 3.61526 7.98761 2.52051V5.25ZM7.99152 12.7412L6.80402 13.9082C6.68846 14.0238 6.59208 14.1508 6.51593 14.29L6.44659 14.4326C6.36264 14.6286 6.32062 14.832 6.32062 15.042C6.3207 15.4896 6.48532 15.8747 6.81378 16.1963C7.14252 16.518 7.53872 16.6787 8.00031 16.6787C8.46175 16.6786 8.8572 16.518 9.18585 16.1963C9.51443 15.8747 9.67894 15.4897 9.67902 15.042C9.67902 14.8742 9.65592 14.7157 9.6087 14.5674L9.55304 14.4219C9.49003 14.2801 9.4073 14.1483 9.30499 14.0264L9.19659 13.9082L8.00909 12.7412L8.00031 12.7324L7.99152 12.7412ZM6.34601 5.61523C5.93947 5.95923 5.56801 6.31314 5.23175 6.67676L4.90753 7.04395C4.59465 7.41418 4.31902 7.78882 4.08038 8.16699L3.85382 8.5459C3.56866 9.05362 3.35248 9.57183 3.20636 10.1006C3.06025 10.6294 2.98761 11.1519 2.98761 11.667C2.98765 12.3004 3.09964 12.9046 3.32355 13.4795L3.42609 13.7236C3.71846 14.371 4.13617 14.9386 4.67902 15.4258L4.70734 15.4512L4.69952 15.4141C4.68581 15.3454 4.67904 15.2839 4.67902 15.2295V15.042C4.67902 14.6546 4.74245 14.2882 4.86945 13.9434L4.92804 13.7969C5.05251 13.5064 5.21985 13.2351 5.42999 12.9834L5.6546 12.7383L7.99933 10.4336L10.345 12.7383C10.6237 13.017 10.8442 13.3218 11.0062 13.6533L11.0716 13.7969C11.2375 14.1841 11.3206 14.5992 11.3206 15.042V15.2295C11.3206 15.2839 11.3138 15.3454 11.3001 15.4141L11.2933 15.4512L11.3206 15.4258C11.7957 14.9994 12.175 14.5119 12.4583 13.9629L12.5735 13.7236C12.8659 13.0763 13.012 12.3908 13.012 11.667C13.012 11.0582 12.9142 10.4781 12.7171 9.92773L12.6263 9.69336C12.3688 9.07389 11.9962 8.52036 11.5091 8.0332L11.5013 8.02539L11.4935 8.03125C11.2858 8.16624 11.0702 8.27603 10.847 8.36035L10.6214 8.43555C10.3171 8.52545 10.0059 8.57126 9.68781 8.57129C8.93688 8.57129 8.27348 8.35345 7.69757 7.91895L7.45636 7.71973C6.82677 7.15239 6.46346 6.45408 6.36652 5.62402L6.36359 5.60059L6.34601 5.61523Z" fill="black" stroke="black" stroke-width="0.025"/>
</svg>